<?xml version="1.0" encoding="UTF-8" standalone="no"?>
<svg
   width="2835" height="2005"
   viewBox="0 0 1300 1878"
   version="1.1"
   xml:space="preserve"
   style="fill-rule:evenodd;clip-rule:evenodd;stroke-linejoin:round;stroke-miterlimit:2;"
   id="svg122"
   sodipodi:docname="hk-white.svg"
   inkscape:version="1.2 (dc2aedaf03, 2022-05-15)"
   xmlns:inkscape="http://www.inkscape.org/namespaces/inkscape"
   xmlns:sodipodi="http://sodipodi.sourceforge.net/DTD/sodipodi-0.dtd"
   xmlns="http://www.w3.org/2000/svg"
   xmlns:svg="http://www.w3.org/2000/svg"><defs
   id="defs126" /><sodipodi:namedview
   id="namedview124"
   pagecolor="#ffffff"
   bordercolor="#000000"
   borderopacity="0.25"
   inkscape:showpageshadow="2"
   inkscape:pageopacity="0.0"
   inkscape:pagecheckerboard="0"
   inkscape:deskcolor="#d1d1d1"
   showgrid="false"
   inkscape:zoom="0.31213606"
   inkscape:cx="496.57832"
   inkscape:cy="1018.7865"
   inkscape:window-width="1920"
   inkscape:window-height="1009"
   inkscape:window-x="-8"
   inkscape:window-y="-8"
   inkscape:window-maximized="1"
   inkscape:current-layer="VIKHK"
   inkscape:pageshadow="2" />
    <g
   id="VIKHK"
   transform="matrix(1,0,0,1,-21,-16)">
        <g
   transform="matrix(1,0,0,1,21.932,125.145)"
   id="g67"
   style="fill:#ffffff">
            <path
   d="M0,1020.94C-0.175,1018.42 -0.504,1015.89 -0.504,1013.36C-0.527,678.25 -0.525,343.139 -0.525,8.027L-0.525,0L572.53,0C538.503,79.742 504.682,159.004 470.827,238.343L241.248,238.343L241.248,246.716C241.248,479.948 241.249,713.18 241.24,946.412C241.24,948.96 241.121,951.507 241.058,954.055C238.359,954.567 235.592,954.846 232.972,955.625C193.632,967.301 154.45,979.538 114.946,990.63C76.801,1001.34 38.329,1010.88 0,1020.94"
   style="fill:#ffffff;fill-rule:nonzero"
   id="path65" />
        </g>
        <g
   transform="matrix(1,0,0,1,1321.42,1436.96)"
   id="g71"
   style="fill:#f2f2f2;fill-opacity:1">
            <path
   d="M0,-992.745C0.093,-989.968 0.266,-987.192 0.266,-984.415C0.278,-659.1 0.277,-333.786 0.277,-8.47L0.277,0L-608.606,0C-603.703,-11.843 -599.008,-23.477 -594.086,-35.014C-579.609,-68.951 -565.07,-102.861 -550.503,-136.758C-540.78,-159.383 -530.919,-181.948 -521.223,-204.584C-517.509,-213.257 -513.832,-221.963 -510.63,-230.831C-508.954,-235.471 -506.476,-236.856 -501.555,-236.846C-420.806,-236.676 -340.058,-236.725 -259.309,-236.725L-239.545,-236.725L-239.545,-245.078C-239.545,-419.336 -239.547,-593.596 -239.532,-767.855C-239.532,-770.863 -239.341,-773.871 -239.239,-776.88C-237.188,-777.876 -234.873,-778.538 -233.127,-779.92C-214.326,-794.784 -195.345,-809.435 -176.95,-824.79C-153.764,-844.145 -131.014,-864.026 -108.205,-883.829C-99.005,-891.818 -89.862,-899.912 -81.197,-908.469C-66.223,-923.255 -51.53,-938.333 -36.93,-953.49C-24.467,-966.428 -12.299,-979.649 0,-992.745"
   style="fill:#f2f2f2;fill-rule:nonzero;fill-opacity:1"
   id="path69" />
        </g>
        <g
   transform="matrix(1,0,0,1,1321.42,341.565)"
   id="g75"
   style="fill:#ffffff">
            <path
   d="M0,102.649C-12.299,115.745 -24.467,128.966 -36.93,141.904C-51.53,157.061 -66.223,172.139 -81.197,186.925C-89.862,195.482 -99.005,203.576 -108.205,211.565C-131.014,231.368 -153.764,251.249 -176.95,270.604C-195.345,285.959 -214.326,300.61 -233.127,315.474C-234.873,316.856 -237.188,317.518 -239.239,318.514C-239.341,315.971 -239.53,313.428 -239.53,310.884C-239.546,217.361 -239.543,123.838 -239.543,30.315L-239.543,22.095L-544.917,22.095C-539.372,-57.601 -533.878,-136.559 -528.359,-215.865L-0.09,-215.865C0.032,-214.131 0.264,-212.372 0.264,-210.612C0.282,-107.574 0.282,-4.536 0.271,98.503C0.271,99.885 0.094,101.267 0,102.649"
   style="fill:#ffffff;fill-rule:nonzero"
   id="path73" />
        </g>
        <g
   transform="matrix(1,0,0,1,21.932,1370.08)"
   id="g79"
   style="fill:#f2f2f2;fill-opacity:1">
            <path
   d="M0,-223.996C38.329,-234.054 76.801,-243.599 114.946,-254.308C154.45,-265.4 193.632,-277.637 232.972,-289.313C235.592,-290.092 238.359,-290.371 241.058,-290.883L241.058,-170.018L512.74,-170.018C507.199,-90.726 501.701,-12.049 496.185,66.887L-0.061,66.887C-0.188,64.927 -0.407,63.116 -0.408,61.306C-0.424,-32.188 -0.424,-125.683 -0.404,-219.176C-0.404,-220.783 -0.141,-222.39 0,-223.996"
   style="fill:#f2f2f2;fill-rule:nonzero;fill-opacity:1"
   id="path77" />
        </g>
        <g
   transform="matrix(1,0,0,1,662.305,20.8159)"
   id="g83"
   style="fill:#2581c5;fill-opacity:1">
            <path
   d="M0,872.021C-22.317,866.129 -44.644,860.274 -66.95,854.34C-126.06,838.612 -185.16,822.85 -244.264,807.104C-248.89,805.872 -253.52,804.656 -258.843,803.249C-250.183,781.373 -241.799,760.396 -233.568,739.358C-219.863,704.329 -206.302,669.244 -192.595,634.215C-180.984,604.542 -169.213,574.932 -157.585,545.265C-143.351,508.95 -129.247,472.583 -114.983,436.279C-103.504,407.063 -91.798,377.936 -80.326,348.717C-65.896,311.967 -51.609,275.163 -37.249,238.386C-29.258,217.921 -21.278,197.452 -13.233,177.009C0.063,143.218 13.424,109.454 26.728,75.666C36.634,50.509 46.491,25.333 56.37,0.165C56.98,0.11 57.592,0.055 58.203,0C53.33,40.894 48.543,81.797 43.555,122.676C39.689,154.356 35.405,185.985 31.606,217.673C26.183,262.912 21.211,308.206 15.711,353.436C11.048,391.782 5.78,430.053 1.029,468.389C-2.157,494.098 -4.799,519.875 -7.886,545.597C-10.286,565.585 -13.053,585.529 -15.552,605.506C-17.706,622.719 -19.619,639.963 -21.853,657.166C-22.411,661.468 -20.964,663.298 -16.823,664.437C5.214,670.492 27.168,676.843 49.166,683.04C73.175,689.803 97.205,696.488 121.216,703.245C159.21,713.937 197.205,724.622 235.153,735.475C237.196,736.059 238.808,738.158 240.618,739.553C238.674,740.207 236.496,740.494 234.823,741.569C218.121,752.303 201.898,763.846 184.77,773.84C156.475,790.35 127.66,805.974 98.969,821.796C81.128,831.634 63.268,841.459 45.12,850.709C30.308,858.26 15.057,864.949 0,872.021"
   style="fill:#2581c5;fill-rule:nonzero;fill-opacity:1"
   id="path81" />
        </g>
        <g
   transform="matrix(1,0,0,1,662.305,1408.87)"
   id="g87"
   style="fill:#276b9c;fill-opacity:1">
            <path
   d="M0,-516.032C15.057,-523.104 30.308,-529.793 45.12,-537.344C63.268,-546.594 81.128,-556.419 98.969,-566.257C127.66,-582.079 156.475,-597.703 184.77,-614.213C201.898,-624.207 218.121,-635.75 234.823,-646.484C236.496,-647.559 238.674,-647.846 240.618,-648.5C233.93,-631.551 227.271,-614.587 220.543,-597.651C208.955,-568.481 197.393,-539.302 185.694,-510.176C173.396,-479.554 160.843,-449.035 148.596,-418.393C129.583,-370.82 110.853,-323.135 91.784,-275.584C74.689,-232.953 57.166,-190.494 40.079,-147.86C23.009,-105.272 6.303,-62.539 -10.667,-19.911C-30.633,30.241 -50.709,80.349 -70.762,130.466C-71.083,131.268 -71.723,131.942 -73.246,132.468C-72.13,121.66 -71.097,110.843 -69.883,100.045C-65.925,64.857 -61.973,29.666 -57.883,-5.508C-53.959,-39.259 -49.747,-72.976 -45.88,-106.734C-41.854,-141.886 -38.198,-177.082 -34.187,-212.236C-28.412,-262.842 -22.327,-313.412 -16.626,-364.026C-10.922,-414.677 -5.529,-465.362 0,-516.032"
   style="fill:#276b9c;fill-rule:nonzero;fill-opacity:1"
   id="path85" />
        </g>
        <g
   transform="matrix(1,0,0,1,824.74,1894.69)"
   id="g91"
   style="fill:#ffffff">
            <path
   d="M0,-401.667L49.404,-401.667L49.404,-242.928C63.778,-244.223 77.501,-245.713 91.262,-246.646C117.837,-248.45 144.418,-250.396 171.029,-251.273C178.596,-251.522 186.578,-249.104 193.832,-246.443C203.211,-243.004 208.071,-234.834 208.104,-225.205C208.362,-150.299 208.247,-75.391 208.247,0L158.565,0L158.565,-218.084L49.732,-218.084L49.732,-0.064L0,-0.064L0,-401.667Z"
   style="fill:#ffffff;fill-rule:nonzero"
   id="path89" />
        </g>
        <g
   transform="matrix(1,0,0,1,491.677,1493.84)"
   id="g95"
   style="fill:#ffffff">
            <path
   d="M0,400.988L-49.819,400.988L-49.819,-0.666L-0.52,-0.666L-0.52,253.219C1.65,251.24 2.979,250.22 4.079,248.996C31.969,217.952 59.915,186.959 87.601,155.735C91.034,151.863 94.422,150.471 99.454,150.572C114.741,150.877 130.039,150.682 147.199,150.682C111.287,188.551 76.344,225.399 40.877,262.799C78.235,308.654 115.511,354.408 153.332,400.832C151.031,401.037 149.351,401.312 147.67,401.316C133.746,401.351 119.812,401.044 105.902,401.485C100.584,401.654 97.605,399.688 94.486,395.676C63.46,355.77 32.227,316.026 0,274.893L0,400.988Z"
   style="fill:#ffffff;fill-rule:nonzero"
   id="path93" />
        </g>
        <g
   transform="matrix(1,0,0,1,1203.72,1631.75)"
   id="g99"
   style="fill:#ffffff">
            <path
   d="M0,124.894C37.662,171.116 74.823,216.723 112.863,263.409C94.432,263.409 77.172,263.554 59.924,263.198C58.056,263.16 55.937,260.456 54.459,258.576C24.085,219.923 -6.212,181.209 -36.53,142.513C-37.648,141.086 -38.835,139.714 -40.815,137.315L-40.815,262.909L-90.771,262.909L-90.771,-138.66L-41.436,-138.66L-41.436,116.214C-33.147,107.03 -26.255,99.429 -19.402,91.792C2.895,66.945 25.24,42.14 47.386,17.158C50.263,13.912 53.085,12.591 57.43,12.666C73.139,12.938 88.854,12.773 106.341,12.773C70.329,50.742 35.353,87.62 0,124.894"
   style="fill:#ffffff;fill-rule:nonzero"
   id="path97" />
        </g>
        <g
   transform="matrix(1,0,0,1,196.355,1895.3)"
   id="g103"
   style="fill:#ffffff">
            <path
   d="M0,-250.567L49.972,-250.567C20.071,-167.093 -9.694,-83.998 -39.734,-0.136C-54.066,-0.136 -68.617,0.048 -83.148,-0.408C-84.693,-0.456 -86.689,-4.053 -87.52,-6.35C-105.759,-56.782 -123.862,-107.262 -141.992,-157.733C-152.383,-186.662 -162.777,-215.588 -173.158,-244.52C-173.851,-246.451 -174.444,-248.416 -175.166,-250.615L-123.882,-250.615C-103.589,-186.137 -83.224,-121.426 -62.301,-54.943C-41.172,-121.287 -20.613,-185.842 0,-250.567"
   style="fill:#ffffff;fill-rule:nonzero"
   id="path101" />
        </g>
        <g
   transform="matrix(1,0,0,1,0,1539.84)"
   id="g107"
   style="fill:#ffffff">
            <rect
   x="309.639"
   y="105.228"
   width="48.567"
   height="249.707"
   style="fill:#ffffff"
   id="rect105" />
        </g>
        <g
   transform="matrix(1,0,0,1,0,1745.54)"
   id="g111"
   style="fill:#ffffff">
            <rect
   x="692.472"
   y="105.234"
   width="56.278"
   height="43.991"
   style="fill:#ffffff"
   id="rect109" />
        </g>
        <g
   transform="matrix(-1,0,0,1,668.047,1134.59)"
   id="g115"
   style="fill:#ffffff">
            <rect
   x="309.245"
   y="411.422"
   width="49.557"
   height="42.563"
   style="fill:#ffffff"
   id="rect113" />
        </g>
        <g
   transform="matrix(0.995212,-0.097744,-0.097744,-0.995212,720.695,20.7498)"
   id="g119">
            <path
   d="M-0.192,-0.048C-0.805,-0.043 -1.42,-0.037 -2.032,-0.032C-1.419,1.312 -0.806,2.658 -0.192,4.003C0.149,3.886 0.492,3.769 0.834,3.652C0.492,2.419 0.15,1.185 -0.192,-0.048"
   style="fill:rgb(122,178,219);fill-rule:nonzero;"
   id="path117" />
        </g>
    </g>
</svg>
